<svg xmlns="http://www.w3.org/2000/svg" width="374" height="374" viewBox="0 0 374 374">
  <g id="open_book" transform="translate(14 -8372)">
    <g id="Book-Icon" transform="translate(0 427)">
      <rect id="Rectangle_1" data-name="Rectangle 1" width="374" height="374" transform="translate(-14 7945)" fill="none"/>
      <g id="_12.time" data-name="12.time" transform="translate(57.551 8013.638)">
        <path id="Path_1" data-name="Path 1" d="M26.122,1,28.7,9.059h8.45l-6.807,4.929,2.582,8.059-6.807-4.929-6.807,4.929L21.9,13.988,15.09,9.059h8.45Z" transform="translate(89.327)" fill="#7b6443"/>
        <path id="Path_2" data-name="Path 2" d="M67.593,34.472H28.472a7.824,7.824,0,1,1,0-15.648h39.12a7.824,7.824,0,0,1,0,15.648ZM36.3,57.944H12.824a7.824,7.824,0,1,1,0-15.648H36.3a7.824,7.824,0,1,1,0,15.648Zm109.537-31.3H122.361a7.824,7.824,0,0,1,0-15.648h23.472a7.824,7.824,0,0,1,0,15.648Zm0,86.065a7.824,7.824,0,0,1-7.824-7.824v-31.3a7.824,7.824,0,1,1,15.648,0v31.3A7.824,7.824,0,0,1,145.833,112.713Z" transform="translate(20.472 68.241)" fill="#7b6443"/>
        <path id="Path_3" data-name="Path 3" d="M53.324,61.148a7.824,7.824,0,0,1-5.555-2.269L24.3,35.407A7.856,7.856,0,0,1,35.407,24.3L58.879,47.769a7.824,7.824,0,0,1-5.555,13.379Z" transform="translate(136.454 143.278)" fill="#7b6443"/>
        <circle id="Ellipse_1" data-name="Ellipse 1" cx="15.5" cy="15.5" r="15.5" transform="translate(151 157.377)" fill="#7b6443"/>
        <path id="Path_4" data-name="Path 4" d="M37.3,119.713a7.824,7.824,0,0,1-7.824-7.824V57.12a7.824,7.824,0,1,1,15.648,0v54.769A7.824,7.824,0,0,1,37.3,119.713Zm39.12,0a7.824,7.824,0,0,1-7.824-7.824V96.241a7.824,7.824,0,1,1,15.648,0v15.648A7.824,7.824,0,0,1,76.417,119.713ZM13.824,64.944A7.824,7.824,0,0,1,6,57.12v-31.3a7.824,7.824,0,0,1,15.648,0v31.3A7.824,7.824,0,0,1,13.824,64.944ZM60.769,57.12A7.824,7.824,0,0,1,52.944,49.3V25.824a7.824,7.824,0,0,1,15.648,0V49.3A7.824,7.824,0,0,1,60.769,57.12Z" transform="translate(27.296 116.009)" fill="#7b6443"/>
        <circle id="Ellipse_2" data-name="Ellipse 2" cx="8" cy="8" r="8" transform="translate(103 87.377)" fill="#7b6443"/>
        <path id="Path_5" data-name="Path 5" d="M11.631,144.881H11.24a7.824,7.824,0,0,1-7.12-8.528,93.889,93.889,0,0,1,183.318-18.934,7.82,7.82,0,0,1-14.944,4.616,78.241,78.241,0,0,0-153.43,15.726A7.824,7.824,0,0,1,11.631,144.881ZM120.777,34.639a28.793,28.793,0,0,1-18.856,10.875,25.194,25.194,0,0,1-22.377-7.824,23,23,0,0,1-4.225-21.829A23.472,23.472,0,0,1,87.838,1.7a30.2,30.2,0,0,0-2.582,15.648,12.6,12.6,0,0,0,5.4,9.389A18.543,18.543,0,0,0,109.98,24h.626a7.824,7.824,0,0,1,10.171,10.641Z" transform="translate(14.232 4.777)" fill="#7b6443"/>
        <path id="Path_6" data-name="Path 6" d="M111.537,37.3a7.824,7.824,0,0,1-7.824-7.824V13.824a7.824,7.824,0,0,1,15.648,0V29.472A7.824,7.824,0,0,1,111.537,37.3Zm-7.2,109.537H9.824A7.824,7.824,0,0,1,2,139.009v-31.3a7.824,7.824,0,0,1,7.824-7.824H118.735a7.824,7.824,0,0,1,0,15.648H17.648v15.648h86.691a7.824,7.824,0,1,1,0,15.648Z" transform="translate(0 34.12)" fill="#7b6443"/>
        <path id="Path_7" data-name="Path 7" d="M77.593,140.185a62.593,62.593,0,1,1,62.593-62.593A62.593,62.593,0,0,1,77.593,140.185Zm0-109.537a46.944,46.944,0,1,0,46.944,46.944A46.944,46.944,0,0,0,77.593,30.648Z" transform="translate(88.713 95.537)" fill="#7b6443"/>
        <path id="Path_8" data-name="Path 8" d="M152.657,92.417H11.824A7.824,7.824,0,0,1,4,84.593V29.824A7.824,7.824,0,0,1,11.824,22H90.691a7.824,7.824,0,0,1,0,15.648H19.648v39.12H152.657a7.824,7.824,0,1,1,0,15.648Z" transform="translate(13.648 143.306)" fill="#7b6443"/>
      </g>
    </g>
  </g>
</svg>
