<?xml version="1.0" encoding="UTF-8" standalone="no"?>
<!DOCTYPE svg PUBLIC "-//W3C//DTD SVG 1.1//EN" "http://www.w3.org/Graphics/SVG/1.1/DTD/svg11.dtd">
<svg width="100%" height="100%" viewBox="0 0 447 528" version="1.1" xmlns="http://www.w3.org/2000/svg" xmlns:xlink="http://www.w3.org/1999/xlink" xml:space="preserve" xmlns:serif="http://www.serif.com/" style="fill-rule:evenodd;clip-rule:evenodd;stroke-linecap:round;stroke-linejoin:round;stroke-miterlimit:1.5;">
    <g transform="matrix(1,0,0,1,0,-189)">
        <g id="Ayah" transform="matrix(0.630465,0,0,0.744711,653.162,114.529)">
            <rect x="-1036" y="100" width="709" height="709" style="fill:none;"/>
            <g id="Ayah1" serif:id="Ayah" transform="matrix(1.42697,0,0,1.20806,-1195.21,-168.967)">
                <g transform="matrix(0.980861,0,0,0.980861,6.88995,9.95215)">
                    <path d="M360,311C475.35,311 569,404.65 569,520C569,635.35 475.35,729 360,729C244.65,729 151,635.35 151,520C151,404.65 244.65,311 360,311ZM360,343C457.689,343 537,422.311 537,520C537,617.689 457.689,697 360,697C262.311,697 183,617.689 183,520C183,422.311 262.311,343 360,343Z" style="fill:rgb(195,172,145);stroke:rgb(155,116,72);stroke-width:15.38px;"/>
                </g>
                <g>
                    <path d="M359.866,394.881C357.126,392.453 312.738,353.944 283,380C245.937,412.474 238.703,398.479 230,392C222.667,397.314 186.123,413.794 161,383C216.667,363.558 224.637,330.66 280,310C326.584,292.616 335.333,288.608 360,252L360.575,252.852C384.805,288.672 393.78,292.751 440,310C495.363,330.66 503.333,363.558 559,383C533.877,413.794 497.333,397.314 490,392C481.297,398.479 474.063,412.474 437,380C406.305,353.105 360,395 360,395L359.866,394.881Z" style="fill:rgb(195,172,145);stroke:rgb(155,116,72);stroke-width:11.12px;"/>
                    <path d="M413,339C436.318,347.773 448.308,353.744 470,368" style="fill:none;stroke:rgb(155,116,72);stroke-width:15.09px;"/>
                    <g transform="matrix(-1,0,0,1,720,0)">
                        <path d="M413,339C436.318,347.773 448.308,353.744 470,368" style="fill:none;stroke:rgb(155,116,72);stroke-width:15.09px;"/>
                    </g>
                    <g transform="matrix(0.827586,0,0,0.827586,62.069,57.5862)">
                        <circle cx="360" cy="334" r="29" style="fill:rgb(155,116,72);"/>
                    </g>
                </g>
                <g transform="matrix(1,0,0,-1,0,1032.18)">
                    <path d="M359.866,394.881C357.126,392.453 312.738,353.944 283,380C245.937,412.474 238.703,398.479 230,392C222.667,397.314 186.123,413.794 161,383C216.667,363.558 224.637,330.66 280,310C326.584,292.616 335.333,288.608 360,252L360.575,252.852C384.805,288.672 393.78,292.751 440,310C495.363,330.66 503.333,363.558 559,383C533.877,413.794 497.333,397.314 490,392C481.297,398.479 474.063,412.474 437,380C406.305,353.105 360,395 360,395L359.866,394.881Z" style="fill:rgb(195,172,145);stroke:rgb(155,116,72);stroke-width:11.12px;"/>
                    <path d="M413,339C436.318,347.773 448.308,353.744 470,368" style="fill:none;stroke:rgb(155,116,72);stroke-width:15.09px;"/>
                    <g transform="matrix(-1,0,0,1,720,0)">
                        <path d="M413,339C436.318,347.773 448.308,353.744 470,368" style="fill:none;stroke:rgb(155,116,72);stroke-width:15.09px;"/>
                    </g>
                    <g transform="matrix(0.827586,0,0,0.827586,62.069,57.5862)">
                        <circle cx="360" cy="334" r="29" style="fill:rgb(155,116,72);"/>
                    </g>
                </g>
            </g>
        </g>
    </g>
</svg>
