<?xml version="1.0" encoding="UTF-8" standalone="no"?>
<!DOCTYPE svg PUBLIC "-//W3C//DTD SVG 1.1//EN" "http://www.w3.org/Graphics/SVG/1.1/DTD/svg11.dtd">
<svg width="100%" height="100%" viewBox="0 0 374 374" version="1.1" xmlns="http://www.w3.org/2000/svg" xmlns:xlink="http://www.w3.org/1999/xlink" xml:space="preserve" xmlns:serif="http://www.serif.com/" style="fill-rule:evenodd;clip-rule:evenodd;stroke-linecap:round;stroke-linejoin:round;stroke-miterlimit:1.5;">
    <g transform="matrix(1,0,0,1,-427,-7860)">
        <g id="Sun-Icon" serif:id="Sun Icon" transform="matrix(1,0,0,1,427,0)">
            <rect x="0" y="7860" width="374" height="374" style="fill:none;"/>
            <g>
                <g transform="matrix(0.356436,0,0,0.356436,208.97,5143.65)">
                    <path d="M160,8145.5L261,8145.5" style="fill:none;stroke:rgb(123,100,67);stroke-width:25.25px;"/>
                </g>
                <g transform="matrix(0.356436,0,0,0.356436,14.9703,5143.65)">
                    <path d="M160,8145.5L261,8145.5" style="fill:none;stroke:rgb(123,100,67);stroke-width:25.25px;"/>
                </g>
            </g>
            <g transform="matrix(0.707107,0.707107,-0.707107,0.707107,5744.86,2224.68)">
                <g transform="matrix(0.356436,0,0,0.356436,208.97,5143.65)">
                    <path d="M160,8145.5L261,8145.5" style="fill:none;stroke:rgb(123,100,67);stroke-width:25.25px;"/>
                </g>
                <g transform="matrix(0.356436,0,0,0.356436,14.9703,5143.65)">
                    <path d="M160,8145.5L261,8145.5" style="fill:none;stroke:rgb(123,100,67);stroke-width:25.25px;"/>
                </g>
            </g>
            <g transform="matrix(0,1,-1,0,8234,7860)">
                <g transform="matrix(0.356436,0,0,0.356436,208.97,5143.65)">
                    <path d="M160,8145.5L261,8145.5" style="fill:none;stroke:rgb(123,100,67);stroke-width:25.25px;"/>
                </g>
                <g transform="matrix(0.356436,0,0,0.356436,14.9703,5143.65)">
                    <path d="M160,8145.5L261,8145.5" style="fill:none;stroke:rgb(123,100,67);stroke-width:25.25px;"/>
                </g>
            </g>
            <g transform="matrix(-0.707107,0.707107,-0.707107,-0.707107,6009.32,13604.9)">
                <g transform="matrix(0.356436,0,0,0.356436,208.97,5143.65)">
                    <path d="M160,8145.5L261,8145.5" style="fill:none;stroke:rgb(123,100,67);stroke-width:25.25px;"/>
                </g>
                <g transform="matrix(0.356436,0,0,0.356436,14.9703,5143.65)">
                    <path d="M160,8145.5L261,8145.5" style="fill:none;stroke:rgb(123,100,67);stroke-width:25.25px;"/>
                </g>
            </g>
            <g transform="matrix(1.03448,0,0,1.03448,-445.069,-269.207)">
                <circle cx="611" cy="8039" r="58" style="fill:none;stroke:rgb(123,100,67);stroke-width:8.7px;"/>
            </g>
        </g>
    </g>
</svg>
