<?xml version="1.0" encoding="UTF-8" standalone="no"?>
<!DOCTYPE svg PUBLIC "-//W3C//DTD SVG 1.1//EN" "http://www.w3.org/Graphics/SVG/1.1/DTD/svg11.dtd">
<svg width="100%" height="100%" viewBox="0 0 374 374" version="1.1" xmlns="http://www.w3.org/2000/svg" xmlns:xlink="http://www.w3.org/1999/xlink" xml:space="preserve" xmlns:serif="http://www.serif.com/" style="fill-rule:evenodd;clip-rule:evenodd;stroke-linecap:round;stroke-linejoin:round;stroke-miterlimit:1.5;">
    <g transform="matrix(1,0,0,1,-856,-8287)">
        <g id="Info-Icon" serif:id="Info Icon" transform="matrix(1,0,0,1,856,427)">
            <rect x="0" y="7860" width="374" height="374" style="fill:none;"/>
            <g transform="matrix(1,0,0,1,-856,-415)">
                <path d="M1064,8499C1046.68,8503.76 1045.01,8499.17 1051,8481L1055,8468C1063.61,8437.72 1031.69,8447.13 1023,8451L1022,8457C1034.62,8452.87 1038.9,8456.26 1035,8469L1029,8488C1022.43,8508.82 1042.82,8514.51 1062,8504L1064,8499Z" style="fill:rgb(123,100,67);"/>
            </g>
            <g transform="matrix(1,0,0,1,-856,-415)">
                <circle cx="1043" cy="8462" r="89" style="fill:none;stroke:rgb(123,100,67);stroke-width:9px;"/>
            </g>
            <g transform="matrix(0.129213,0,0,0.129213,61.7303,6917.1)">
                <circle cx="1043" cy="8462" r="89" style="fill:rgb(123,100,67);"/>
            </g>
        </g>
    </g>
</svg>
