<?xml version="1.0" encoding="UTF-8" standalone="no"?>
<!DOCTYPE svg PUBLIC "-//W3C//DTD SVG 1.1//EN" "http://www.w3.org/Graphics/SVG/1.1/DTD/svg11.dtd">
<svg width="100%" height="100%" viewBox="0 0 374 374" version="1.1" xmlns="http://www.w3.org/2000/svg" xmlns:xlink="http://www.w3.org/1999/xlink" xml:space="preserve" xmlns:serif="http://www.serif.com/" style="fill-rule:evenodd;clip-rule:evenodd;stroke-linecap:round;stroke-linejoin:round;stroke-miterlimit:1.5;">
    <g transform="matrix(1,0,0,1,-856,-7860)">
        <g id="Moon-Icon" serif:id="Moon Icon" transform="matrix(1,0,0,1,856,0)">
            <rect x="0" y="7860" width="374" height="374" style="fill:none;"/>
            <g transform="matrix(2.24872,0,0,2.24872,-1675.93,4365.92)">
                <g transform="matrix(1.02384,0,0,1.02384,-1492.27,-2723.45)">
                    <path d="M2261.34,4217.2C2253.32,4224.82 2248.32,4235.58 2248.32,4247.5C2248.32,4270.57 2267.05,4289.3 2290.12,4289.3C2291.52,4289.3 2292.89,4289.23 2294.25,4289.1C2286.75,4296.23 2276.62,4300.6 2265.47,4300.6C2242.4,4300.6 2223.67,4281.87 2223.67,4258.8C2223.67,4237.12 2240.2,4219.28 2261.34,4217.2Z" style="fill:none;stroke:rgb(123,100,67);stroke-width:3.91px;"/>
                </g>
                <g transform="matrix(1,0,0,1,-1372.51,-2597.88)">
                    <path d="M2234.33,4205L2236.73,4212.6L2244.48,4212.6L2238.21,4217.3L2240.6,4224.9L2234.33,4220.2L2228.06,4224.9L2230.46,4217.3L2224.19,4212.6L2231.94,4212.6L2234.33,4205Z" style="fill:none;stroke:rgb(123,100,67);stroke-width:4px;"/>
                </g>
            </g>
        </g>
    </g>
</svg>
