<?xml version="1.0" encoding="UTF-8" standalone="no"?>
<!DOCTYPE svg PUBLIC "-//W3C//DTD SVG 1.1//EN" "http://www.w3.org/Graphics/SVG/1.1/DTD/svg11.dtd">
<svg width="100%" height="100%" viewBox="0 0 374 374" version="1.1" xmlns="http://www.w3.org/2000/svg" xmlns:xlink="http://www.w3.org/1999/xlink" xml:space="preserve" xmlns:serif="http://www.serif.com/" style="fill-rule:evenodd;clip-rule:evenodd;stroke-linecap:round;stroke-linejoin:round;stroke-miterlimit:1.5;">
    <g transform="matrix(1,0,0,1,0,-8287)">
        <g id="Book-Icon" serif:id="Book Icon" transform="matrix(1,0,0,1,0,427)">
            <rect x="0" y="7860" width="374" height="374" style="fill:none;"/>
            <g>
                <g>
                    <g transform="matrix(1,0,0,1.00704,0,-474.077)">
                        <path d="M187,8531C187,8531 264.137,8531 289.221,8531C293.517,8531 297,8527.54 297,8523.28C297,8493.66 297,8389 297,8389" style="fill:none;stroke:rgb(123,100,67);stroke-width:8.37px;"/>
                    </g>
                    <g transform="matrix(1,0,0,1,0,-415)">
                        <path d="M195,8532C215.834,8517.46 241.318,8506.32 272,8499L272,8372C243.667,8369.42 215.333,8375.17 187,8389L187,8532L195,8532Z" style="fill:none;stroke:rgb(123,100,67);stroke-width:8.4px;"/>
                    </g>
                </g>
                <g transform="matrix(-1,0,0,1,374,0)">
                    <g transform="matrix(1,0,0,1.00704,0,-474.077)">
                        <path d="M187,8531C187,8531 264.137,8531 289.221,8531C293.517,8531 297,8527.54 297,8523.28C297,8493.66 297,8389 297,8389" style="fill:none;stroke:rgb(123,100,67);stroke-width:8.37px;"/>
                    </g>
                    <g transform="matrix(1,0,0,1,0,-415)">
                        <path d="M195,8532C215.834,8517.46 241.318,8506.32 272,8499L272,8372C243.667,8369.42 215.333,8375.17 187,8389L187,8532L195,8532Z" style="fill:none;stroke:rgb(123,100,67);stroke-width:8.4px;"/>
                    </g>
                </g>
                <g transform="matrix(1.21429,0,0,1.44444,-40.0714,-4210.11)">
                    <path d="M201,8539C201,8534.03 196.203,8530 190.294,8530L183.706,8530C177.797,8530 173,8534.03 173,8539C173,8543.97 177.797,8548 183.706,8548L190.294,8548C196.203,8548 201,8543.97 201,8539Z" style="fill:rgb(123,100,67);"/>
                </g>
            </g>
        </g>
    </g>
</svg>
