<?xml version="1.0" encoding="UTF-8" standalone="no"?>
<!DOCTYPE svg PUBLIC "-//W3C//DTD SVG 1.1//EN" "http://www.w3.org/Graphics/SVG/1.1/DTD/svg11.dtd">
<svg width="100%" height="100%" viewBox="0 0 374 374" version="1.1" xmlns="http://www.w3.org/2000/svg" xmlns:xlink="http://www.w3.org/1999/xlink" xml:space="preserve" xmlns:serif="http://www.serif.com/" style="fill-rule:evenodd;clip-rule:evenodd;stroke-linecap:round;stroke-linejoin:round;stroke-miterlimit:1.5;">
    <g transform="matrix(1,0,0,1,0,-7860)">
        <rect id="Quran-Icon" serif:id="Quran Icon" x="0" y="7860" width="374" height="374" style="fill:none;"/>
        <g id="Quran-Icon1" serif:id="Quran Icon">
            <g transform="matrix(0.868401,0,0,0.851593,26.2327,1192.95)">
                <rect x="98" y="7934" width="152" height="194" style="fill:none;stroke:rgb(123,100,67);stroke-width:9.7px;"/>
            </g>
            <g transform="matrix(0.666708,0,0,0.684786,61.3273,2532.58)">
                <path d="M250,7956.78C243.793,7956.78 237.841,7954.38 233.452,7950.11C229.063,7945.84 226.598,7940.04 226.598,7934C198.022,7934 149.978,7934 121.402,7934C121.402,7940.04 118.937,7945.84 114.548,7950.11C110.159,7954.38 104.207,7956.78 98,7956.78C98,7994.12 98,8067.88 98,8105.22C104.207,8105.22 110.159,8107.62 114.548,8111.89C118.937,8116.16 121.402,8121.96 121.402,8128C149.978,8128 198.022,8128 226.598,8128C226.598,8121.96 229.063,8116.16 233.452,8111.89C237.841,8107.62 243.793,8105.22 250,8105.22C250,8067.88 250,7994.12 250,7956.78Z" style="fill:none;stroke:rgb(123,100,67);stroke-width:12.34px;"/>
            </g>
            <g transform="matrix(0.868401,0,0,-0.153638,26.2327,9363.47)">
                <path d="M250,7934L98,7934C120.43,7958.35 119.863,8104.26 98,8128L250,8128C280.137,8128 279.221,7934 250,7934Z" style="fill:none;stroke:rgb(123,100,67);stroke-width:13.37px;"/>
            </g>
            <g transform="matrix(0.851593,0,0,0.851593,27.0283,1192.95)">
                <path d="M160,8145.5L261,8145.5" style="fill:none;stroke:rgb(123,100,67);stroke-width:9.79px;"/>
            </g>
            <g transform="matrix(0.851593,0,0,0.851593,27.0283,1192.95)">
                <path d="M276.7,8142L276.7,7954.85C276.7,7943.33 267.367,7934 255.854,7934L229,7934" style="fill:none;stroke:rgb(123,100,67);stroke-width:9.79px;"/>
            </g>
            <g transform="matrix(0.799455,0,0,0.808144,36.2307,1540.79)">
                <path d="M176.5,7986L190.852,8000.35L211.148,8000.35L211.148,8020.65L225.5,8035L211.148,8049.35L211.148,8069.65L190.852,8069.65L176.5,8084L162.148,8069.65L141.852,8069.65L141.852,8049.35L127.5,8035L141.852,8020.65L141.852,8000.35L162.148,8000.35L176.5,7986Z" style="fill:none;stroke:rgb(123,100,67);stroke-width:10.37px;"/>
            </g>
            <g transform="matrix(0.756074,0.291461,-0.284036,0.736813,2325.35,2064.9)">
                <path d="M176.5,8009L192.056,8015.44L198.5,8031L192.056,8046.56L176.5,8053L160.944,8046.56L154.5,8031L160.944,8015.44L176.5,8009Z" style="fill:none;stroke:rgb(123,100,67);stroke-width:10.42px;"/>
            </g>
        </g>
    </g>
</svg>
